<?xml version="1.0" encoding="utf-8"?>
<!-- Generator: Adobe Illustrator 21.0.2, SVG Export Plug-In . SVG Version: 6.00 Build 0)  -->
<svg version="1.1" id="Layer_1" xmlns="http://www.w3.org/2000/svg" xmlns:xlink="http://www.w3.org/1999/xlink" x="0px" y="0px"
	 width="499px" height="388.4px" viewBox="0 0 499 388.4" style="enable-background:new 0 0 499 388.4;" xml:space="preserve">
<style type="text/css">
	.st0{fill:none;}
	.st1{fill:#25076B;}
	.st2{fill:#46178F;}
	.st3{fill:#FFFFFF;}
	.st4{fill:#1368CE;}
	.st5{fill:#26890C;}
	.st6{fill:#E21B3C;}
	.st7{fill:#FFA602;}
	.st8{fill:#BF8C55;}
	.st9{fill:#106B03;}
	.st10{fill:#F2F2F2;}
	.st11{fill:#FFDD33;}
	.st12{fill:#66BF39;}
	.st13{fill:#B2DF9C;}
	.st14{fill:#252525;}
	.st15{fill:#3A1C07;}
	.st16{fill:#FF3355;}
</style>
<rect class="st0" width="499" height="386.6"/>
<title>illu_play</title>
<g>
	<path class="st0" d="M347.3,344c-0.3,1.5-0.7,2.7-1,3.9l2.2,0.7C348.1,347,347.7,345.5,347.3,344z"/>
	<path class="st0" d="M336.6,181.4c0,0.8-0.1,1.6-0.1,2.4C336.6,183.1,336.6,182.2,336.6,181.4z"/>
	<path class="st1" d="M156.5,203.4l-36.5-2.1l4.2-64.1l35.9,2.7l-1.7,28.3l1.8,0.8l1.5-16.5l0.9-13.6c0.1-1.3-0.9-2.4-2.2-2.5
		l-37.1-2.6c-1.3,0-2.4,0.9-2.5,2.2l-4.5,68.9c-0.1,1.3,0.9,2.5,2.2,2.6h0.1l37.1,2.6c1.3,0.1,2.4-0.9,2.5-2.2l0,0l0.8-11.3l-2-1.1
		L156.5,203.4z M136.4,207.2c-1.2-0.2-2.1-1.3-1.9-2.5c0.1-1.1,1.1-1.9,2.2-1.9c1.2,0.1,2.1,1.1,2,2.3
		C138.6,206.4,137.6,207.3,136.4,207.2z"/>
	<path class="st2" d="M136.7,202.8c-1.2-0.1-2.3,0.8-2.3,2s0.8,2.3,2,2.3c1.2,0.1,2.3-0.8,2.3-2l0,0
		C138.8,204,137.9,202.9,136.7,202.8z"/>
	<path class="st3" d="M124.3,137.1l-4.2,64.1l36.5,2.1l0.5-8l-1.5-0.8l-0.2,5.1c0,0.6-0.5,1-1,1l0,0l-13.6-0.8c-0.6-0.1-1-0.6-1-1.1
		l1.7-26.9c0-0.6,0.5-1,1-1l0,0l5.9,0.3c-0.2-0.4-0.4-0.8-0.5-1.3l-5.1-0.3c-0.6,0-1-0.6-1-1.1l2-27.7c0-0.6,0.5-1,1.1-1
		c0,0,0,0,0.1,0l13.2,1.1c0.6,0,1,0.5,1,1.1l-1.5,25.5l1.1,0.5l1.7-28.3L124.3,137.1z M136.6,199c0,0.6-0.5,1-1.1,1l0,0l-13.3-0.8
		c-0.6,0-1-0.6-1-1.1l0,0l1.7-27c0-0.6,0.5-1,1-1l0,0l13,1c0.6,0.1,1,0.6,1,1.1L136.6,199z M138.7,168c0,0.6-0.5,1-1.1,1l-13.6-0.9
		c-0.6-0.1-1-0.6-1-1.1l1.7-28.3c0-0.6,0.5-1,1.1-1l0,0l13.6,1.6c0.6,0.1,1,0.6,0.9,1.1L138.7,168z"/>
	<path class="st3" d="M156.5,177h-0.2v0.9C156.3,177.5,156.4,177.3,156.5,177z"/>
	<path class="st4" d="M157.9,140.9l-13.4-1.2c-0.6-0.1-1.1,0.4-1.1,0.9c0,0,0,0,0,0.1l-2,27.7c0,0.6,0.4,1.1,1,1.1l5.1,0.3
		c-0.9-2.2-0.9-4.6,0-6.8l9.8,4.5l1.5-25.5C158.8,141.5,158.4,141,157.9,140.9z M149.2,159.9l-3.7-4.2l4.1-4.5l4,4.6L149.2,159.9z"
		/>
	<path class="st5" d="M141.3,171.8l-1.7,26.9c0,0.6,0.4,1.1,1,1.1l13.6,0.8c0.6,0,1-0.4,1.1-1l0,0l0.2-5.1l-1-0.5
		c0,0-1.3-5.7,1.7-16.2v-0.9c-3.2-1-6.1-3-8-5.8l-5.9-0.3C141.7,170.7,141.3,171.2,141.3,171.8L141.3,171.8z M144.7,181.6l7.4,0.2
		l-0.5,8l-6.8-0.2L144.7,181.6z"/>
	<path class="st6" d="M139.5,139.2l-13.6-1.6c-0.6-0.1-1.1,0.4-1.1,0.9l0,0l-1.7,28.3c0,0.6,0.4,1.1,1,1.1l13.6,0.9
		c0.6,0,1.1-0.4,1.1-1l1.7-27.6C140.5,139.8,140.1,139.3,139.5,139.2z M127.9,156.4l4.5-6.8l3.6,7L127.9,156.4z"/>
	<path class="st7" d="M137.1,171.1l-13-1c-0.6,0-1,0.4-1.1,0.9l0,0l-1.7,27c0,0.6,0.4,1.1,1,1.1l0,0l13.3,0.8c0.6,0,1-0.4,1.1-1l0,0
		l1.5-26.8C138.2,171.6,137.7,171.1,137.1,171.1L137.1,171.1z M134.7,185c-0.3,2.2-2.2,3.8-4.5,3.6c-2.2-0.2-3.8-2.2-3.5-4.4l0,0
		c0.3-2.2,2.2-3.8,4.5-3.6C133.4,180.8,134.9,182.8,134.7,185L134.7,185z"/>
	<polygon class="st3" points="127.9,156.5 136,156.6 132.4,149.6 	"/>
	<polygon class="st3" points="145.5,155.7 149.2,160 153.5,155.8 149.6,151.1 	"/>
	<polygon class="st3" points="152.1,181.8 144.7,181.6 144.7,189.6 151.6,189.8 	"/>
	<path class="st3" d="M131.2,180.6c-2.2-0.2-4.2,1.4-4.5,3.6c-0.3,2.2,1.3,4.2,3.5,4.4l0,0c2.2,0.2,4.2-1.4,4.5-3.6
		C135,182.8,133.4,180.9,131.2,180.6L131.2,180.6z"/>
	<path d="M269.5,277.7c-4,10.6-11.6,23.3-24.7,20.7c0.8,5.2,3.5,9.9,7.7,13.1c4.3-2.8,8-6.4,10.8-10.7c0,0-4.2,8.8-8,12.5
		c0,0,7.6,6.1,21.3,5.7C277.1,302,274.1,288.4,269.5,277.7z"/>
	<path d="M336.5,183.9c0-0.8,0-1.7,0.1-2.4c-0.1-1.2-0.3-2.3-0.8-3.4c-4.7,16.4-12.2,34-10.9,39c3.3,7.2,5.9,14.8,7.7,22.5l22.5,7.7
		c-1.5-2.7-3.1-5.3-4.8-7.8C337.5,220.8,335.9,198.3,336.5,183.9L336.5,183.9L336.5,183.9z"/>
	<path d="M350.2,326.7c1,5.5,2,10.2,3,14.3c6.8,1.3,9.4-0.5,9.4-0.5c2-3.6,0.3-16.9,0.3-16.9c1.8,5.7,2.8,11.6,3.1,17.6
		c8.7,4.4,10-2,10-2c1.9-8,0.7-27.7-4.6-49.5l-27.8-10.5C351.4,294.1,351.8,312.2,350.2,326.7z"/>
	<path class="st8" d="M171.1,187l-1-23.3l-7.9-15.5l-0.4,4.2l-1.5,16.5l-1.8-0.8l-1.1-0.5l-9.8-4.4c-0.9,2.2-0.9,4.6,0,6.8
		c0.2,0.4,0.4,0.9,0.6,1.3c2,2.7,4.7,4.7,7.9,5.7h0.2c0,0.3-0.2,0.6-0.2,0.8c-3.1,10.5-1.7,16.2-1.7,16.2l1,0.5l1.5,0.8l2,1.1
		l61,32.4l3.7-23L171.1,187z"/>
	<path class="st8" d="M405.2,268.6l-5.8,19.6l0.8,0.2c4.2,14.6,6.4,29.8,6.5,45l-10.6,4.8l-2.4,11.6l6.3,2.5
		c-2.4,15.4,20.4,15.9,22.2,9.4c7.8-28.6-3.7-90-3.7-90C413.9,271.1,409.5,270,405.2,268.6z"/>
	<path class="st9" d="M362.7,364.5L362.7,364.5c0-0.1,0,0.1,0,0.1V364.5z"/>
	<path class="st9" d="M347.3,344c0.4,1.6,0.9,3.1,1.3,4.5l7.6,2.2c-0.9-2.7-1.9-5.9-2.8-9.6c-1-4.1-2.1-8.9-3-14.3
		C349.6,332.6,348.6,338.3,347.3,344z"/>
	<path class="st10" d="M253.3,212.5l-14.4-4.9l-5.3,33.1c2.5,1,4.9,2.2,7.2,3.6c3.6-4.3,6.6-10.7,9.5-19.8
		C251.5,220.5,252.5,216.5,253.3,212.5z"/>
	<path class="st10" d="M275.3,277c-0.7-5.1-1.3-10-1.7-14.7c-1.7,4-3.6,7.8-5.7,11.5c0.6,1.2,1.2,2.5,1.7,3.9
		c4.6,10.7,7.5,24.3,7.2,41.3c0,1.2,0,2.4-0.1,3.6l10.8,3.9C282.1,313,278.1,296.5,275.3,277z"/>
	<path class="st10" d="M282.9,283.5c1.7-4.3,5.4-14.4,8.8-26c-4.1,0-5.5-2.1-5.5-2.1c0.9-3.4,2.1-6.8,3.3-10.2
		c-2.3-2.2-4.2-4.8-5.6-7.7c-0.5,1.3-1.1,2.7-1.7,4.1c-1.1,2.6-2.2,5.2-3.2,7.7C279.6,259,280.8,271,282.9,283.5z"/>
	<path class="st10" d="M391.9,259.6l-36.7-12.5l-22.5-7.7c5,19.9,7.6,49.2-10.2,71.5c0,0-12.1,2.6-26-9.3l6.2-14.6l-8,12.7
		c-4.5-2.1-8.1-5.6-10.5-9.9c2.4,13.6,6.3,26.9,11.6,39.6l47.3,17.2l3.3,1c0.3-1.1,0.6-2.4,1-3.9c1.3-5.7,2.3-11.4,3-17.2
		c1.6-14.5,1.2-32.6-6.5-47.4l27.8,10.5l10.2,3.9L391.9,259.6z"/>
	<path class="st8" d="M220.3,387.8l-0.6,0.5h2.7c-0.3-0.6-0.6-1.2-0.9-1.7L220.3,387.8z"/>
	<path class="st11" d="M319.1,385.1c-3.4-1-6.4-3-8.7-5.8c-2.4,1.3-5.2,1.6-7.8,0.9l-1.2-0.4c-5.4-1.6-8.4-7.3-6.8-12.7l5-16.8
		c0-0.2,0.2-0.5,0.2-0.7c-3.1-4.3-5.9-8.8-8.2-13.5l-17.8-6.5l-54.9,49.6c0.5,2.6,1.4,5,2.6,7.4c0.3,0.6,0.6,1.1,0.9,1.7H269
		l16.3-15.8l-11.4,15.9h55.9L319.1,385.1z"/>
	<path class="st11" d="M303.5,343.7l0.6,0.8c1.2-0.7,2.5-1.2,3.8-1.4C306.4,343,304.9,343.2,303.5,343.7z"/>
	<path class="st11" d="M300.8,339.5c0.5,0.9,1.1,1.8,1.7,2.7c0.3-0.6,0.7-1.2,1.1-1.7L300.8,339.5z"/>
	<path class="st11" d="M300.8,339.5l2.7,1c3.3-4.5,7.2-3.4,7.2-3.4l13.9,4.1l0,0c0.3,0,0.7,0.2,1,0.3l17.5,5.1l-47.3-17.2
		C297.2,332.8,298.9,336.2,300.8,339.5z"/>
	<path class="st11" d="M291.6,336.1c-1.5-3-2.9-6.2-4.2-9.7l-10.8-3.9h-0.2l-2.6,7.1L291.6,336.1z"/>
	<path class="st9" d="M282.9,283.5c-2.1-12.6-3.3-24.6-4-34.3c-1.9,4.7-3.7,9-5.4,13c0.5,4.7,1.1,9.6,1.7,14.7
		c2.8,19.5,6.8,36,12.1,49.5c1.3,3.4,2.7,6.6,4.2,9.7c2.3,4.7,5,9.3,8.2,13.5c0.8-2.1,2.3-3.9,4.3-5.1l-0.6-0.8
		c-1.2,0.5-2.2,1.4-2.8,2.6c0.4-1.4,1-2.8,1.7-4.2c-0.6-0.9-1.1-1.8-1.7-2.7c-1.9-3.2-3.6-6.5-5.1-10c-5.3-12.7-9.2-26-11.6-39.6
		c-0.8-1.3-1.4-2.7-2-4.2C281.9,285.7,282.5,284.9,282.9,283.5z"/>
	<path class="st9" d="M311.6,344c-1.2-0.4-2.5-0.6-3.7-0.7c-1.3,0.2-2.6,0.7-3.8,1.4c-2,1.2-3.5,3-4.3,5.1c0,0.2-0.2,0.4-0.2,0.7
		l-5,16.8c-1.6,5.4,1.5,11,6.8,12.7l1.2,0.4c2.6,0.8,5.4,0.5,7.8-0.9c-3.8-4.6-5-10.7-3.3-16.4l0.6-2.1c0.9-2.9,2.5-5.5,4.7-7.7
		c-0.1-1.2,0-2.5,0.4-3.6l0.3-1.2c0.2-0.5,0.3-0.9,0.5-1.4h-0.2c0.4-1.3-0.4-2.6-1.6-2.9C311.7,344,311.7,344,311.6,344z"/>
	<path class="st12" d="M350.1,371.1l-11.8-3.5l-1.5,5.1c-0.7,2.2-2.9,3.4-5.1,2.8l-0.5-0.1c-2.2-0.7-3.4-2.9-2.8-5.1l1.5-5.1
		l-10.4-3.1c-4-1.2-6.8-4.7-7.1-8.8c-2.2,2.1-3.8,4.8-4.7,7.7l-0.6,2.1c-2.8,9.4,2.6,19.3,11.9,22.2l10.8,3.2h21.3
		c3.7-2.3,6.4-5.8,7.7-10l0.6-2.1c0.7-2.5,0.9-5.1,0.5-7.6C357.4,371.2,353.6,372.1,350.1,371.1z"/>
	<path class="st13" d="M346.3,347.7l-3.3-1l-17.5-5.1c-0.3-0.1-0.7-0.2-1-0.3l-10.9,5.6c-0.2,0.4-0.4,0.9-0.5,1.4l-0.3,1.2
		c-0.4,1.2-0.5,2.4-0.4,3.6c0.3,4.1,3.1,7.6,7.1,8.8l10.4,3.1l0.9-3.1c0.7-2.2,2.9-3.4,5.1-2.8l0.5,0.2c2.2,0.7,3.4,2.9,2.8,5.1
		l-0.9,3.1l11.8,3.5c5.2,1.5,10.6-1.3,12.3-6.4c0,0,0-0.1,0-0.2v-0.1l0.4-1.2c1.5-5.3-1.5-10.9-6.7-12.5h-0.2l-7.6-2.2L346.3,347.7z
		"/>
	<path class="st13" d="M310.7,337.1c0,0-3.9-1.1-7.2,3.4c-0.4,0.5-0.7,1.1-1.1,1.7c-0.7,1.3-1.3,2.7-1.7,4.2
		c0.5-1.2,1.5-2.1,2.8-2.6c1.4-0.5,2.9-0.7,4.4-0.5c1.3,0.1,2.5,0.4,3.7,0.7c1.3,0.2,2.2,1.4,2,2.7c0,0.1,0,0.2-0.1,0.4h0.2
		l10.9-5.6l0,0L310.7,337.1z"/>
	<path class="st9" d="M331.1,375.3l0.5,0.1c2.2,0.6,4.5-0.6,5.1-2.8l1.5-5.1l0.9-3.1c0.6-2.2-0.6-4.5-2.8-5.1l-0.5-0.2
		c-2.2-0.6-4.4,0.7-5.1,2.8l-0.9,3.1l-1.5,5.1C327.7,372.4,328.9,374.7,331.1,375.3z"/>
	<path d="M278.9,249.3c1-2.5,2.1-5.1,3.2-7.7c0.6-1.4,1.1-2.8,1.7-4.1c-2-4.1-3.4-8.4-4.3-12.9c-2.7-0.6-7.1-2-7.1-2
		c-13.5-4.2-16.9-16.6-16-30.1c-0.8,5-1.5,12.1-3.1,20.1c-0.8,4-1.8,8-3,11.9c-2.9,9.2-5.8,15.6-9.5,19.8c-5.3,6.2-11.9,8-21.9,7.4
		c0,0,0.9,14.1,12.1,21.4c0,0,9.2-3.1,13.4-10.6c-2.3,4.9-5.7,9.2-10.1,12.5c1.1,1.5,2.9,2.5,4.8,2.6c0,0,5.3-2.8,8.4-13.1
		c0,0-3.2,11.3-5.1,14.4c0,0,16,9,24-3c0.4-0.6,0.9-1.3,1.3-2.1c2.1-3.7,4.1-7.6,5.7-11.5C275.2,258.3,277,253.9,278.9,249.3z"/>
	<path class="st8" d="M272.4,222.5c0,0,4.5,1.4,7.1,2c-0.3-1.3-0.4-2-0.4-2l20.1-14c0.3-13.1-0.1-26.3-1.2-39.4l0.7-4.4l-0.9-0.3
		l-1.7,4.9c-6.1-0.1-12.1-1.8-17.3-5l2.9-5.7l-0.5-0.2l-4,5.5l-4.8-2l2.9-5.3l-0.8-0.2l-3.7,4.5c-2.1-0.4-4.3-0.9-6.3-1.7
		c-3.4,8.9-7.5,21.5-8.3,33.3C255.5,205.9,258.9,218.3,272.4,222.5z M279.9,173.1c0.8-2.2,2.1-3.8,3-3.4c0.9,0.3,1,2.4,0.2,4.6
		c-0.8,2.2-2.1,3.8-3,3.4C279.2,177.4,279.1,175.4,279.9,173.1L279.9,173.1z M290,192.1l-0.3,7.4l-2.9-0.1c-0.8,2.1-1.9,4.1-3.2,6
		c0.9,0,1.8,0,2.8,0c13.5,0.7-12.3,10.1-16.5,4.5c0.1-0.2,0.2-0.3,0.4-0.5c-8-3.8-10.5-14.2-10.5-14.2h3.3v-1.1L290,192.1z
		 M265.2,168c0.8-2.2,2.1-3.8,3-3.4c0.9,0.3,1,2.4,0.2,4.6c-0.8,2.2-2.1,3.7-3,3.4C264.5,172.2,264.5,170.2,265.2,168z M265.1,185.9
		c1.1,0.6,2.3,0.9,3.5,0.8c-0.6,0.5-1.3,0.7-2,0.8c-0.8,0.1-1.6-0.1-2.2-0.6c-1.2-0.9-1.9-2.4-1.7-3.9
		C263.3,184.1,264.1,185.1,265.1,185.9L265.1,185.9z"/>
	<path class="st8" d="M289.4,245.2c4.1-11.9,9.2-23.9,9.7-33.5c0-1.1,0.1-2.1,0.1-3.2l-20.1,14c0,0,0.1,0.8,0.4,2
		c0.9,4.5,2.3,8.8,4.3,12.9C285.2,240.4,287.1,243,289.4,245.2z"/>
	<polygon class="st3" points="407.7,260.2 393,255.8 391.9,259.6 381.7,293.6 380.9,296.5 395.6,300.9 399.3,288.2 405.2,268.6 	"/>
	<polygon class="st3" points="238.9,207.6 239.7,202.5 224.6,200 223.7,205.8 220,228.8 217.9,242 233,244.4 233.6,240.7 	"/>
	<path class="st14" d="M265.4,172.5c0.9,0.3,2.3-1.2,3-3.4c0.8-2.2,0.7-4.3-0.2-4.6c-0.9-0.3-2.3,1.2-3,3.4S264.5,172.2,265.4,172.5
		z"/>
	<path class="st14" d="M280.1,177.7c0.9,0.3,2.3-1.2,3-3.4s0.7-4.3-0.2-4.6s-2.3,1.2-3,3.4C279.1,175.3,279.2,177.4,280.1,177.7z"/>
	<path class="st15" d="M264.4,186.9c0.6,0.5,1.4,0.7,2.2,0.6c0.7,0,1.4-0.3,2-0.8c-1.2,0.1-2.5-0.2-3.5-0.8c-1-0.8-1.8-1.8-2.4-2.9
		C262.5,184.5,263.1,186,264.4,186.9z"/>
	<path d="M335.8,178c-1.4-3.4-5.1-7.4-14.7-8.4c-7.6-1-15.1-2.6-22.4-4.9l-0.7,4.4c1.1,13.1,1.5,26.3,1.2,39.4c0,1.1,0,2.1-0.1,3.2
		c-0.5,9.6-5.5,21.6-9.7,33.5c-1.2,3.4-2.3,6.8-3.3,10.2c0,0,1.5,2,5.5,2.1c-3.4,11.6-7.1,21.7-8.8,26c-0.5,1.4-0.9,2.2-0.9,2.2
		c0.6,1.4,1.2,2.8,2,4.2c2.3,4.3,6,7.8,10.5,9.9l8-12.7l-6.2,14.6c13.9,11.9,26,9.3,26,9.3c17.9-22.3,15.3-51.6,10.2-71.5
		c-1.9-7.7-4.5-15.2-7.7-22.5C323.6,212,331.1,194.4,335.8,178z"/>
	<path d="M279.8,157.8c-1.3-0.3-2.8-0.7-4.4-1.2l-2.9,5.3l4.8,2l4-5.5L279.8,157.8L279.8,157.8z"/>
	<path d="M278.8,164.3c5.2,3.2,11.2,4.9,17.4,5l1.7-4.9c-7.2-2.3-13.2-4.6-16.1-5.8L278.8,164.3z"/>
	<path d="M274.6,156.3c-4.6-1.4-9.2-3.1-13.6-5c-0.9,2.7-1.4,4.4-1.4,4.4c1.4,1.5,3.2,2.7,5.1,3.3c2,0.8,4.1,1.3,6.3,1.7
		L274.6,156.3z"/>
	<path class="st5" d="M342.4,163.3c0.2-1,0.3-2,0.5-3.1L342.4,163.3L342.4,163.3z"/>
	<path class="st5" d="M342.9,160.1c2.1-13.2,4.9-36.1-0.5-38.5c-7.6-3.4-43.3-19-51.6-19.9c-5.8-0.6-18.1,20.8-25,33.8
		C268,134.9,284.6,131.6,342.9,160.1z"/>
	<path class="st13" d="M274.2,143.1c12.5,4,24.6,9.1,36.3,15.1c2.7,0,6.1,0,10.7,0.2c7.3,0.4,14.5,2,21.2,4.9l0.5-3.1l0,0l0,0
		c-58.3-28.5-74.9-25.2-77.1-24.6l-0.3,0.1l-2.3,4.7C266.6,141,270.2,141.9,274.2,143.1z"/>
	<path class="st5" d="M274.6,156.3l0.8,0.2c1.6,0.5,3.1,0.9,4.4,1.2c22.4,2.9,16.8,0.5,30.7,0.4c-11.7-6-23.8-11-36.3-15.1
		c-4-1.2-7.7-2-11-2.7c-8.7-1.7-15-2.3-19.6-5.3c-11.6-7.4-9.6-2.1-9.6-2.1c7.5,8.4,17.6,14.3,26.9,18.3
		C265.4,153.2,270,154.9,274.6,156.3z"/>
	<path class="st9" d="M321.2,158.4c-4.5-0.2-8-0.3-10.7-0.2c-13.9,0.1-8.4,2.5-30.7-0.4l0,0l1.5,0.6l0.5,0.2
		c2.9,1.2,8.9,3.5,16.1,5.8l0.9,0.3c7.3,2.3,14.8,4,22.4,4.9c9.6,1,13.3,4.9,14.7,8.4c0.4,1.1,0.7,2.2,0.8,3.4
		c0.1,0.8,0,1.6-0.1,2.4l0,0c0,0,21.3,14.3,29.6,6.2c6.1-5.9-5.9-19.5-23.7-26.8l0,0C335.7,160.4,328.5,158.8,321.2,158.4z"/>
	<path class="st14" d="M281.8,197.2l-1.6,1.9l-16.9-0.5l-0.2-3.3h-3.3c0,0,2.5,10.4,10.5,14.2c1-1.2,4.4-4,13.3-4.1
		c1.3-1.9,2.4-3.9,3.2-6l-5-0.2V197.2z"/>
	<polygon class="st3" points="263.1,194.2 263.2,195.3 263.4,198.6 280.3,199.1 281.8,197.2 281.9,199.1 286.9,199.4 289.8,199.5 
		290,192.2 	"/>
	<path class="st16" d="M270.4,209.5c-0.1,0.1-0.3,0.3-0.4,0.5c4.2,5.6,30-3.8,16.5-4.5c-1,0-1.9,0-2.8,0
		C274.8,205.5,271.4,208.3,270.4,209.5z"/>
</g>
</svg>
