<?xml version="1.0" encoding="utf-8"?>
<!-- Generator: Adobe Illustrator 21.0.2, SVG Export Plug-In . SVG Version: 6.00 Build 0)  -->
<svg version="1.1" id="Layer_1" xmlns="http://www.w3.org/2000/svg" xmlns:xlink="http://www.w3.org/1999/xlink" x="0px" y="0px"
	 width="602px" height="400.6px" viewBox="0 0 602 400.6" style="enable-background:new 0 0 602 400.6;" xml:space="preserve">
<style type="text/css">
	.st0{fill:none;}
	.st1{fill:#25076B;}
	.st2{fill:#534741;}
	.st3{fill:#3F332E;}
	.st4{fill:#FF99AA;}
	.st5{fill:#46178F;}
	.st6{fill:#FF3355;}
	.st7{fill:#E21B3C;}
	.st8{fill:#C2A5DF;}
	.st9{fill:#C60929;}
	.st10{fill:#AF0429;}
	.st11{fill:#FFA602;}
	.st12{fill:#18074C;}
	.st13{fill:#0AA3A3;}
	.st14{fill:#028282;}
	.st15{fill:#33CCCC;}
	.st16{fill:#403732;}
	.st17{fill:#FFFFFF;}
	.st18{fill:#242823;}
	.st19{fill:#191919;}
</style>
<rect class="st0" width="602" height="400.6"/>
<title>illu_host</title>
<g>
	<rect x="185.1" y="339.1" class="st1" width="172.6" height="69.7"/>
	<path class="st0" d="M329.7,301.1c0-1-0.2-2-0.2-3C329.5,299,329.6,300,329.7,301.1z"/>
	<path class="st0" d="M330.1,307.2c0-1-0.2-2-0.2-3.1C329.9,305.2,330,306.2,330.1,307.2z"/>
	<path class="st0" d="M328.6,286.4c0-0.9,0-1.9-0.2-2.7C328.5,284.6,328.5,285.4,328.6,286.4z"/>
	<path class="st0" d="M328.2,274.4c0-0.9,0-1.9,0-2.7C328.2,272.5,328.2,273.4,328.2,274.4z"/>
	<path class="st0" d="M328.3,280.3c0-0.9,0-1.9-0.1-2.8C328.2,278.4,328.3,279.4,328.3,280.3z"/>
	<path class="st0" d="M330.7,313.4c0-1-0.2-2-0.3-3C330.5,311.4,330.6,312.4,330.7,313.4z"/>
	<path class="st0" d="M331.6,321.5c-0.2-1.5-0.3-3-0.6-4.5C331.3,318.5,331.4,319.9,331.6,321.5z"/>
	<path class="st0" d="M333.2,334.8c-0.2-1-0.3-2.2-0.4-3.2C332.9,332.7,333,333.7,333.2,334.8z"/>
	<path class="st0" d="M332.4,328.5c-0.2-1-0.2-2.1-0.4-3.1C332.1,326.4,332.2,327.5,332.4,328.5z"/>
	<path class="st0" d="M329.1,294.4c-0.1-1.4-0.2-2.7-0.2-4.1C328.9,291.6,329,293.1,329.1,294.4z"/>
	<path class="st0" d="M328.2,268.1L328.2,268.1z"/>
	<path class="st2" d="M470,112.3l-0.1-0.2l-1.8,1.6l-8.1,7.1l-0.3,0.3l-0.3-0.3c-1.8-2.4-3.8-4.5-5.7-6.9l-1.8,1.5l-0.2,0.2
		l-0.2-0.2c-2-2.4-3.9-4.8-5.8-7.3l-0.2-0.2l0,0c-2-2.4-3.8-4.9-5.7-7.2l1-1l-0.2-0.2l-0.2,0.2l-0.6,0.5l-0.6,0.4
		c-0.4,0.2-0.8,0.5-1.1,0.7c-0.8,0.4-1.6,0.8-2.5,1l-0.4,0.2l0,0c-1.2,0.5-2.5,0.9-3.7,1.3s-2.7,0.9-4.1,1.4l0,0l0,0L423.1,93
		l-2.6,6.1l17.6,19.1l-7.6,6.7l10.2,13.2L470,112.3z"/>
	<path class="st2" d="M428.1,90.7c1.7-0.7,3.3-1.4,5-2l1.8-0.7l2.1-1.8l4.5-4l0.8-0.7l-18.7,11l2.1-0.9L428.1,90.7z"/>
	<path class="st2" d="M441,99.9L441,99.9l-1.1,0.9c2.1,2.4,4.1,4.6,6,6.9l0.9-0.3l-0.8,0.7c1.9,2.3,3.9,4.4,5.8,6.6l1.8-1.5l0.3-0.2
		l0.2,0.3l5.7,6.7l7.8-6.9l7.9-6.9l-5.5-6.6l-1.8,1.5l-0.2,0.2l-0.2-0.2L462,94l-2.8-3.6l-2.9-3.6l0,0l0.1-0.1l2.4-2.1
		c-2.5-3.1-5.2-6.1-7.7-9.2l-4.2,3.8c-1.5,1.3-3,2.6-4.5,3.9l-4.5,3.9l-0.8,0.7l1.5-0.6c1.7-0.7,3.4-1.1,5-1.9h0.2v0.2
		c0.3,0.8,0.6,1.6,0.8,2.5c0.2,0.5,0.2,0.8,0.2,1.3l0.1,0.7c0,0.2,0,0.5,0,0.7c0.1,1.8-0.2,3.6-0.9,5.3
		C443.1,97.3,442.1,98.8,441,99.9l0.1,0.2L441,99.9z"/>
	<path class="st3" d="M436.9,86.3l-2.1,1.8l1.7-0.7l0.8-0.7l4.5-3.9c1.5-1.3,3-2.6,4.5-3.9l4.2-3.8c2.6,3.1,5.3,6,7.7,9.2l-2.4,2.2
		l-0.1,0.1l0,0l2.9,3.6l2.9,3.6l5.8,7.2l0.2,0.2l0.2-0.2l1.8-1.5l5.5,6.6l-7.9,6.9l-7.8,6.9l-5.7-6.7l-0.2-0.2l-0.3,0.2l-1.8,1.5
		c-1.9-2.3-3.8-4.4-5.8-6.6l0.8-0.7l-0.9,0.3c-2-2.4-4-4.5-6-6.9l1.1-0.9l0,0l0,0l-0.2-0.2c-0.1,0.1-0.1,0.1-0.2,0.2l0.2,0.2l-1,1
		c1.8,2.4,3.8,4.7,5.8,7.1l0,0l0.2,0.2c2,2.4,3.9,4.9,5.8,7.3l0.2,0.2l0.2-0.2l1.8-1.5c1.8,2.4,3.7,4.5,5.7,6.9l0.3,0.3l0.3-0.3
		l8.1-7.1l1.8-1.6l6.2-5.6l0.3-0.2l-0.2-0.3l-6-7.1l-0.2-0.2l-0.2,0.2l-1.8,1.6l-5.8-6.8l-3-3.6l-2.7-3.6l2.5-2.1h0.1v-0.1
		c-2.6-3.2-5.3-6.4-7.8-9.6l-0.2-0.2l-0.2,0.2c-1.5,1.3-3,2.5-4.5,3.8c-1.5,1.2-2.5,2.2-3.8,3.2l-0.8,0.7L436.9,86.3z"/>
	<path class="st2" d="M431.7,103.4l3.7-1.5v-0.2l0.8-0.3v0.1c0.6-0.2,1.3-0.6,1.8-0.9c0.4-0.2,0.8-0.4,1-0.7l0.6-0.4l0.5-0.4
		c1.3-1,2.3-2.5,2.9-4.1c0.7-1.5,1-3.2,1.1-4.9c0-0.2,0-0.5,0-0.7v-0.7c0-0.5-0.1-0.8-0.2-1.3c-0.2-0.8-0.5-1.6-0.8-2.4
		c-1.7,0.7-3.2,1.3-4.8,2c-1.6,0.7-3.2,1.5-5,2.1c-1.7,0.7-3.4,1.3-5,1.9l-2.5,0.8l-2.5,0.8l0,0l0,0l4.5,12.2
		C429,104.5,430.4,104,431.7,103.4z"/>
	<path class="st3" d="M423.2,93l2.5-0.8l2.5-0.8c1.7-0.7,3.4-1.2,5-1.9c1.7-0.7,3.3-1.4,5-2.1s3.2-1.4,4.8-2
		c0.3,0.8,0.6,1.5,0.8,2.4c0.1,0.4,0.2,0.8,0.2,1.3v0.7c0,0.2,0,0.4,0,0.7c0,1.7-0.5,3.4-1.1,4.9c-0.7,1.5-1.7,2.8-2.9,4.1l-0.5,0.4
		l-0.6,0.4c-0.3,0.2-0.7,0.5-1,0.7c-0.6,0.3-1.2,0.7-1.8,0.9v-0.1l-0.8,0.3v0.2l-3.7,1.5c-1.3,0.7-2.6,1.1-4,1.9l0,0l0,0
		c1.4-0.5,2.7-0.8,4.1-1.4c1.3-0.5,2.5-0.8,3.7-1.3l0,0l0.4-0.2c0.8-0.3,1.7-0.7,2.5-1c0.4-0.2,0.8-0.5,1.1-0.7l0.6-0.4l0.6-0.5
		l0.2-0.2c0.1-0.1,0.1-0.1,0.2-0.2c1.2-1.1,2.2-2.5,2.8-4.1c0.7-1.7,0.9-3.5,0.9-5.3c0-0.2,0-0.5,0-0.7l-0.4-0.7
		c-0.1-0.5-0.2-0.8-0.2-1.3c-0.2-0.8-0.6-1.7-0.8-2.5V85h-0.2c-1.7,0.7-3.3,1.2-5,1.9l-1.5,0.6L435,88l-1.8,0.7
		c-1.7,0.7-3.3,1.3-5,2l-2.5,1l-2.1,0.9l-0.4,0.2l0,0V93z"/>
	<path class="st4" d="M235.4,155.7l21.5,6.2c-3.1-7.2-4.8-15-5-22.8L235.4,155.7z"/>
	<path d="M304.5,69.1c0,0.8,0,1.5,0,2.4c2.5-0.2,4.9-0.2,7.4,0c23.1,1.7,37.3,19.6,32.4,43.9c1.9,0.2,3.8,0.4,5.7,0.4
		c25,0,45.4-20.9,45.4-46.7S375.1,22.4,350,22.4C324.9,22.3,304.5,43.3,304.5,69.1L304.5,69.1L304.5,69.1z"/>
	<path class="st2" d="M141,80.5l2.1,1.8l1.8,0.7c1.7,0.7,3.3,1.3,5,2l2.5,1l2.1,0.9l-18.7-11l0.8,0.7L141,80.5z"/>
	<path class="st2" d="M139.9,112.3l17.4-19l-2.6-6.1l0,0l0,0l-4.5,12.3l0,0l0,0c-1.3-0.5-2.7-0.9-4.1-1.4c-1.3-0.5-2.5-0.8-3.7-1.3
		l0,0l-0.4-0.2c-0.8-0.3-1.7-0.7-2.5-1c-0.4-0.2-0.8-0.5-1.1-0.7l-0.6-0.4l-0.6-0.5l-0.2-0.2l-0.2,0.2l1,0.9
		c-1.8,2.4-3.7,4.7-5.8,7.2l0,0l-0.2,0.2c-2,2.5-3.9,4.9-5.9,7.3l-0.2,0.2l-0.2-0.2l-1.8-1.5c-1.8,2.4-3.7,4.5-5.7,6.9l-0.3,0.3
		l-0.3-0.3l-7.9-7.1l-1.8-1.6l-0.2,0.2l29.4,25.8l13-10.8L139.9,112.3z"/>
	<path class="st2" d="M134.2,89.8c-0.7-1.6-0.9-3.5-0.9-5.3c0-0.2,0-0.5,0-0.7v-0.7c0.1-0.5,0.2-0.8,0.2-1.3
		c0.2-0.8,0.6-1.7,0.8-2.5v-0.2h0.1c1.7,0.7,3.4,1.3,5,1.9l1.5,0.6l-0.8-0.7l-4.5-3.8c-1.5-1.3-3-2.6-4.5-3.9s-2.8-2.5-4.2-3.8
		c-2.6,3-5.3,6-7.8,9.2l2.4,2.1l0.1,0.1V81l-2.9,3.6l-2.9,3.6l-5.8,7.2l-0.2,0.2l-0.1-0.1l-1.8-1.5l-5.5,6.6l8,6.8l7.8,6.9
		c1.8-2.3,3.8-4.5,5.7-6.7l0.2-0.3l0.3,0.2l1.8,1.5l5.8-6.6l-0.8-0.7l0.9,0.3c2-2.4,4-4.5,6-6.9l-1.1-0.9l0,0l0,0l0.2-0.2
		C135.9,92.8,134.8,91.3,134.2,89.8z"/>
	<path class="st3" d="M117.9,115.2l0.3,0.3l0.3-0.3c1.8-2.3,3.7-4.5,5.7-6.9l1.8,1.5l0.2,0.2l0.2-0.2c2-2.4,3.9-4.8,5.8-7.3l0.2-0.2
		l0,0c2-2.4,3.9-4.8,5.8-7.2l-1.1-1l0.2-0.2l-0.2-0.1l-0.2,0.2l0,0l0,0l1.1,0.9c-2.1,2.4-4.1,4.6-6,6.9l-0.9-0.2l0.8,0.7l-5.8,6.6
		l-1.8-1.5l-0.3-0.2l-0.2,0.3c-1.8,2.3-3.8,4.5-5.7,6.7l-7.7-6.9l-7.8-6.9l5.5-6.6l1.8,1.5l0.2,0.2l0.2-0.2l5.8-7.2l2.9-3.6l2.8-3.6
		v-0.1l-0.2-0.2l-2.4-2.1c2.5-3.1,5.2-6.1,7.8-9.2c1.4,1.2,2.8,2.5,4.2,3.8c1.4,1.2,3,2.6,4.5,3.9l4.5,3.8l0.8,0.7l1.7,0.7l-1.9-1.6
		l-4.5-4l-0.8-0.7l-3.8-3.2c-1.5-1.3-3-2.5-4.6-3.9l-0.2-0.2l-0.2,0.2c-2.6,3.2-5.2,6.5-7.8,9.6l-0.1,0.2l0.1,0.1l2.4,2.1l-2.9,3.4
		l-3,3.6l-5.8,6.9l-1.8-1.6l-0.2-0.2l-0.2,0.2l-5.7,7.1l-0.2,0.3l0.3,0.2l6.2,5.6l1.8,1.6L117.9,115.2z"/>
	<path class="st2" d="M149.6,85.5c-1.7-0.7-3.4-1.2-5-1.9c-1.7-0.7-3.3-1.4-5-2.1s-3.2-1.4-4.8-2c-0.3,0.8-0.6,1.5-0.7,2.4
		c-0.1,0.4-0.2,0.8-0.2,1.3v0.7c0,0.2,0,0.5,0,0.7c0,1.7,0.5,3.4,1.1,4.9c0.7,1.5,1.7,2.8,3,4l0.5,0.4l0.6,0.4
		c0.3,0.2,0.7,0.5,1,0.7c0.6,0.3,1.2,0.7,1.8,0.8l0,0l0.8,0.3v0.2c1.2,0.6,2.5,1,3.7,1.5c1.3,0.6,2.6,1.1,4,1.9l0,0l0,0l4.5-12.2
		c-0.8-0.2-1.7-0.6-2.5-0.8L149.6,85.5z"/>
	<path class="st3" d="M149.7,85c-1.7-0.7-3.3-1.4-5-2l-1.8-0.7l-1.7-0.7l-1.5-0.6c-1.7-0.7-3.4-1.1-5-1.9h-0.1v0.2
		c-0.4,0.8-0.6,1.6-0.9,2.5c-0.1,0.5-0.2,0.8-0.2,1.3v0.7c0,0.2,0,0.5,0,0.7c-0.1,1.8,0.2,3.6,0.9,5.3c0.7,1.5,1.7,2.9,2.8,4.1
		l0.2,0.1l0.1,0.1l0.6,0.5l0.6,0.4c0.4,0.2,0.8,0.5,1.1,0.7c0.8,0.4,1.6,0.8,2.5,1l0.4,0.2l0,0c1.2,0.5,2.5,0.9,3.7,1.3
		s2.7,0.9,4.1,1.4l0,0c-1.3-0.7-2.6-1.2-4-1.9c-1.3-0.7-2.5-1-3.7-1.5V96l-0.8-0.3l0,0c-0.6-0.2-1.3-0.6-1.8-0.8
		c-0.4-0.2-0.7-0.4-1-0.7l-0.6-0.4l-0.5-0.4c-1.3-1-2.3-2.5-3-4s-1-3.2-1.1-4.9c0-0.2,0-0.4,0-0.7v-0.7c0-0.5,0.1-0.8,0.2-1.3
		c0.2-0.8,0.4-1.5,0.7-2.4c1.7,0.7,3.2,1.3,4.8,2s3.3,1.5,5,2.1c1.7,0.7,3.3,1.3,5,1.9l2.5,1c0.8,0.2,1.7,0.6,2.5,0.8l0,0l0,0
		l-0.4-0.2l-2.1-0.9L149.7,85z"/>
	<path class="st5" d="M241.5,309.9v-12.7c0,0,1.2-0.5,3.3-1l-4.6-21.8c-2.1,6.3-4.6,12.5-7.7,18.3c-24.4,11.4-62,104-71.6,116.1H181
		C190.6,394.5,237.7,315,241.5,309.9z"/>
	<path class="st5" d="M296,296.1c1.1,0.3,2.3,0.7,3.4,1l0.9,11.5l0.4,0.4c1.1,1,2.3,2.3,3.4,3.4c-2.1-8.8-3.7-17.4-5.2-25.9
		l-2.7,9.6H296z"/>
	<path class="st6" d="M300.6,309.1c1.1,1.1,2.3,2.4,3.5,3.6v-0.2C302.9,311.3,301.8,310.1,300.6,309.1z"/>
	<path class="st6" d="M277,306.5v2.7h-25.7v-1.7c-3.4,0.6-6.7,1.3-9.9,2.5c-3.9,5.1-50.8,84.5-60.4,98.9h41.5
		c0,0,27.7-41.1,52.1-38.9c24.2,2.2,51.7,38.9,51.7,38.9c-10-87.3-37.3-97.9-39.9-101.7C283.6,306.7,280.4,306.6,277,306.5z"/>
	<path class="st7" d="M304.1,312.6c-1.1-1.2-2.3-2.4-3.5-3.6l-0.4-0.4l-9.8-1.2c-1.2-0.2-2.5-0.3-4.1-0.4
		c2.5,3.8,17.9,35.3,28.2,52.1l-3.7-19.9C308.4,330.3,306.1,321.4,304.1,312.6z"/>
	<path class="st8" d="M305.8,220.1l25.7,5.7c-0.3,1.5-0.6,3.1-0.8,4.6l111.5-90l-1.8-2.4l-10.2-13.2l-1.3-1.7l-114.2,76l14,6.8
		L305.8,220.1z"/>
	<path class="st8" d="M229.3,226.3l22.2-5.7l-9.9-14l5.8-3.2l-95.5-83.2l-1.5,1.2l-13,10.8l-2.1,1.7L229,234.4
		C229.2,231.7,229.3,228.9,229.3,226.3z"/>
	<path class="st2" d="M281.5,184c-3.5-0.8-6.9-2.3-9.8-4.2l-2.8,16.1l5,5.9l22.4-8.9c0.9-3.4,2-7,2.8-10.2
		C293.4,185,287.4,185.3,281.5,184z"/>
	<path class="st9" d="M260.5,242.3l5.1,48.5H277v2.1c3.5,0.2,7,0.7,10.4,1.2l0,0l8.1-30.1c-1.9-15.2-2.7-30.4-2.5-45.7v0.2
		l-18.4,5.7L274,209L260.5,242.3z"/>
	<path class="st9" d="M262.4,222.2v-10c-5.4,9.3-13.5,24.3-15.1,34.4c-1.6,9.4-4,18.7-7.1,27.8l4.6,21.8c1.7-0.5,3.9-1,6.7-1.5v-3.8
		h12.4l-5.2-48.8l15-37.3l0.3,0.2l-0.1-2.8L262.4,222.2z"/>
	<path class="st10" d="M287.4,294.1L287.4,294.1c0.9,0.2,2,0.4,3,0.7l0,0c1.8,0.4,3.7,0.8,5.5,1.4h0.2l2.7-9.6
		c-1.3-7.7-2.5-15.2-3.3-22.7L287.4,294.1z"/>
	<polygon class="st7" points="258.7,242 263.7,290.8 265.7,290.8 260.5,242.3 274,208.7 273.9,204.9 273.6,204.7 	"/>
	<path class="st1" d="M251.5,294.6c-2.7,0.6-5,1-6.7,1.5c-2.1,0.7-3.3,1-3.3,1v12.7l0,0c3.2-1.1,6.5-1.9,9.9-2.5L251.5,294.6z"/>
	<path class="st1" d="M290.4,294.7c-0.9-0.2-2.1-0.4-3-0.7c-3.5-0.7-6.9-1-10.4-1.2v13.5c3.3,0.2,6.5,0.4,9.3,0.7
		c1.4,0.1,2.7,0.2,4.1,0.4l0,0V294.7L290.4,294.7z"/>
	<path class="st1" d="M299.4,297.2c-1.1-0.4-2.3-0.7-3.4-1c-1.8-0.6-3.7-1-5.5-1.4L299.4,297.2z"/>
	<path class="st11" d="M277,292.9v-2.1h-25.7v18.3H277V292.9z M254.5,305.7v-11h20.1v11H254.5z"/>
	<rect x="254.5" y="294.7" class="st5" width="20" height="11"/>
	<path class="st1" d="M293,218.3c-0.2,15.2,0.7,30.6,2.5,45.7c0.8,7.4,2,14.9,3.3,22.7c1.5,8.5,3.1,17.1,5.2,25.9v0.2
		c2.1,8.8,19.6,87.2,22.2,96.2h21.7c0-0.5-14.3-70.4-14.3-70.9l-0.4-3.1c-0.2-1-0.3-2.2-0.4-3.2l-0.4-3.2c-0.2-1-0.2-2.1-0.4-3.1
		c-0.2-1.3-0.3-2.6-0.5-4c-0.2-1.3-0.3-3-0.6-4.5c-0.2-1.1-0.2-2.4-0.4-3.5c-0.2-1.1-0.2-2-0.3-3c-0.1-1-0.2-2.1-0.3-3.2
		c-0.1-1-0.2-2-0.2-3.1c-0.1-1-0.2-2.1-0.2-3.2c-0.1-1-0.2-2-0.2-3c-0.1-1-0.2-2.4-0.2-3.6c-0.1-1.1-0.2-2.7-0.2-4.1l-0.2-4.1
		c0-0.9,0-1.9-0.2-2.7c-0.2-0.9-0.1-2.2-0.2-3.2s0-1.9-0.1-2.8s0-2.1,0-3.1s0-1.9,0-2.7c0-0.8,0-2.4,0-3.5v-2.4c0-1.7,0-3.4,0-5l0,0
		c0.2-10.2,0.9-20.4,2.6-30.6c0.2-1.5,0.6-3.1,0.8-4.6l-25.7-5.7l22.8-14.1l-14-6.8l-17.7-8.6l-0.8,3.2L293,218.3z"/>
	<path class="st8" d="M334.5,342.4c7.4,37.9,14.3,65.9,14.3,66.4H501c-36.8-47.7-83.9-62.1-119.8-91.9
		c-26.6-22.1-46.4-48.4-52.4-62.7l0,0C329.1,255.9,327,304.6,334.5,342.4z"/>
	<path class="st8" d="M227.6,245.5c-13.1,22.2-52.1,61-73.3,83.1c-22.1,22.8-59.3,76.7-63.6,80.3h77c12.1-24.3,33.8-67.1,46.5-103.8
		C223.9,277.8,226.4,253.6,227.6,245.5z"/>
	<path class="st1" d="M240.3,274.3c3.1-9.1,5.5-18.3,7.1-27.8c1.6-10,9.7-25,15.1-34.4V210l6.4-14.3l0,0l0.8-4.1l-22.2,11.6
		l-5.8,3.1l9.9,14l-22.2,5.7c0,2.7-0.1,5.4-0.3,8.1c-0.2,2.9-0.7,6.6-1.3,11c-2.8,19-10.7,51.4-31.7,93.8h2.2
		c9.7-12.1,28.3-35.8,34.3-46.6C235.6,286.7,238.2,280.6,240.3,274.3z"/>
	<polygon class="st6" points="262.4,210.2 262.4,212.2 262.4,222.2 273.7,202 268.8,196 268.7,196 268.7,196 	"/>
	<polygon class="st6" points="273.9,204.9 274,208.7 274.5,224 293,218.5 293,218.3 296.1,193.8 296.3,193.2 296.3,193.2 273.7,202 
			"/>
	<path class="st2" d="M312.9,109.3L312.9,109.3l9.8,19.4c2.1-1.3,4.6-2,7.1-2c0,0-14.5-50.2-62-34.9c-3.8,4.5-6.9,9.4-9.3,14.8
		l53.5,0.8L312.9,109.3z"/>
	<path class="st2" d="M296,173.5l23.1-23.4c-3.9-4.5-4.4-11-1.7-16.1l-7.4-15.9c-1.7,4.9-4.1,10.5-6.8,12.3
		c-4.7,3.2-22.3,2.6-25.6,2.5l-0.6,2.2l-13.7-2.2c-0.2-0.6-0.5-1.1-0.5-1.8c-3.7-0.2-7.4-1-10.9-2.2c-0.4,3.3-0.6,6.6-0.4,10
		c0.2,7.9,1.9,15.6,5,22.8c3.1,7.5,8.3,13.7,14.8,18.1c3,1.9,6.4,3.4,9.8,4.2c5.8,1.3,11.9,0.9,17.5-1.1c3.8-1.3,7.3-3.2,10.5-5.6
		L296,173.5z M261.8,140.9l44.3,1.3c0,0-9.5,13.2-21.8,18.9l-0.6,0.2h-0.2c-13.4,6-18.3-1.5-18.3-1.5l0,0
		c-3.5-4.1-3.9-10.5-3.8-14.7h-0.3l0.4-0.7C261.5,142.2,261.8,140.9,261.8,140.9z"/>
	<polygon class="st12" points="290.5,294.8 290.4,294.7 290.4,294.7 290.4,307.4 290.4,307.4 300.2,308.7 299.4,297.2 	"/>
	<path class="st13" d="M310.2,118.2l7.4,15.9c1.2-2.2,2.9-4.1,5-5.3l-9.7-19.4C312.9,109.3,311.8,113.5,310.2,118.2z"/>
	<path class="st14" d="M263.2,131c-0.1-0.7,0-1.1,0.1-1.8c-5-0.9-9.7-2.8-13.9-5.7c-0.2-0.2-0.5-0.4-0.6-0.7c-0.1,1.5,0.3,3,1.1,4.2
		c0.7,0.7,1.5,1.2,2.5,1.5C255.8,130.1,259.4,130.9,263.2,131z"/>
	<path class="st14" d="M312.9,109.3l-0.9-2.1c0,0-5.6,18.6-11.2,20.4c-7.3,2.2-14.6,3.2-22.1,3.2l-0.6,2.1
		c3.4,0.2,20.9,0.7,25.6-2.5c2.6-1.8,5-7.4,6.8-12.3C311.8,113.5,312.9,109.3,312.9,109.3L312.9,109.3z"/>
	<path class="st15" d="M263.3,129.3c0.2-1,0.6-2.1,1.2-3c3.9-1.7,7.4-4,10.7-6.6c3.2-2.9,6.2-6.2,8.8-9.8l-5.5,21
		c7.5,0.1,15-0.9,22.2-3.1c5.7-1.8,11.2-20.4,11.2-20.4l-53.5-0.8h-2.2c0,0-10.3,12.5-7.4,16.6c0.2,0.2,0.4,0.5,0.6,0.7
		C253.8,126.5,258.4,128.5,263.3,129.3z M283.7,123l7.3-4.5c0.5-0.3,1.1-0.2,1.4,0.3s0.2,1.1-0.4,1.5l0,0l-7.3,4.5
		c-0.3,0.2-0.7,0.2-0.9,0c-0.2-0.1-0.3-0.2-0.5-0.4C283.1,124,283.3,123.3,283.7,123L283.7,123z M284.5,118.8l14-9.4
		c0.5-0.3,1-0.2,1.4,0.3l0,0c0.3,0.5,0.2,1.1-0.3,1.5l-14,9.3c-0.3,0.2-0.7,0.2-0.9,0c-0.2-0.1-0.3-0.2-0.4-0.4
		C284,119.6,284.1,119.1,284.5,118.8L284.5,118.8z M255.3,121.1l7-4.1c0.6-0.3,1.1-0.1,1.4,0.4c0.3,0.6,0.1,1.1-0.4,1.5l-7,4.1
		c-0.3,0.2-0.7,0.2-0.9,0c-0.6-0.2-0.7-0.9-0.5-1.4C254.9,121.2,255.1,121.1,255.3,121.1L255.3,121.1z M252.8,118.8l14-9.4
		c0.5-0.3,1.1-0.2,1.4,0.3l0,0c0.3,0.5,0.2,1-0.3,1.4l0,0l-14,9.5c-0.3,0.2-0.7,0.2-0.9,0c-0.2-0.1-0.3-0.2-0.5-0.4
		C252.2,119.7,252.3,119.1,252.8,118.8z"/>
	<path class="st2" d="M284,109.9c-2.6,3.6-5.6,6.9-8.9,9.8c-3.3,2.7-6.9,4.9-10.7,6.6l12.8,8.8l0.6-2.2l0.6-2.1L284,109.9z"/>
	<path class="st16" d="M264.5,126.3c-0.6,0.9-0.9,1.9-1.2,3c-0.2,0.7-0.2,1.1-0.1,1.8s0.2,1.2,0.5,1.8l13.7,2.2L264.5,126.3z"/>
	<path class="st17" d="M253,120.7c0.3,0.2,0.7,0.2,0.9,0l14-9.4c0.5-0.3,0.6-0.9,0.3-1.4l0,0c-0.3-0.5-0.9-0.7-1.3-0.3l0,0l-14,9.4
		c-0.5,0.3-0.6,0.9-0.3,1.5C252.6,120.5,252.8,120.6,253,120.7z"/>
	<path class="st17" d="M284.7,120.7c0.3,0.2,0.7,0.2,0.9,0l14-9.3c0.5-0.3,0.6-0.9,0.3-1.5c-0.3-0.5-0.9-0.7-1.4-0.3l0,0l-14,9.4
		c-0.5,0.3-0.6,1-0.3,1.5C284.4,120.6,284.5,120.6,284.7,120.7z"/>
	<path class="st17" d="M256.3,122.9l7-4.1c0.5-0.3,0.7-0.9,0.4-1.5c-0.3-0.6-0.9-0.7-1.4-0.4l-7,4.1c-0.6,0.2-0.7,0.9-0.5,1.4
		c0.1,0.2,0.2,0.4,0.5,0.5C255.5,123.1,255.9,123.1,256.3,122.9z"/>
	<path class="st17" d="M283.7,124.9c0.3,0.2,0.7,0.2,0.9,0l7.3-4.5c0.5-0.3,0.7-0.9,0.4-1.5l0,0c-0.3-0.5-0.9-0.7-1.4-0.3l-7.3,4.5
		c-0.5,0.3-0.6,0.9-0.3,1.4l0,0C283.5,124.6,283.6,124.8,283.7,124.9z"/>
	<path class="st18" d="M283.7,161.2h-0.2H283.7z"/>
	<path class="st18" d="M300.6,142l-7,4.9l-5.8,0.2l-0.9-2l-1.8,1.9c-7.9,0.2-15.8-0.4-23.7-1.9c-0.2,4.2,0.3,10.8,3.8,14.7
		c9.1-7.1,25.4-2.4,25.4-2.4c-2,1.3-4.1,2.5-6.2,3.6c12.4-5.7,21.8-18.9,21.8-18.9l-44.3-1.3c0,0-0.2,1.4-0.3,3.4l1.7-3.4L300.6,142
		z"/>
	<path class="st17" d="M261.4,145c7.8,1.5,15.7,2.2,23.7,1.9l1.8-1.9l0.9,2.1l5.8-0.2l7-4.9l-37.5-1l-1.7,3.4l-0.4,0.7h0.4V145z"/>
	<path class="st19" d="M311.8,71.5c-2.5-0.2-4.9-0.2-7.4,0C281.1,73.4,267,91.9,267,91.9l0.8-0.2c47.3-15.2,62,34.9,62,34.9h0.2
		l1.3-5.9l12.4-7.6c-0.2,2.5-0.3,5-0.6,7.5c0.6-1.7,0.9-3.4,1.3-5.2C349.2,91.1,334.9,73.2,311.8,71.5z"/>
	<path class="st9" d="M265.3,159.7L265.3,159.7c0,0,5,7.6,18.3,1.5h0.2l0.6-0.2c2.2-1,4.2-2.3,6.2-3.6
		C290.4,157.4,274.4,152.7,265.3,159.7z"/>
	<path class="st19" d="M326,154.6l2.1,8.4c2.1-2.6,3.9-5.5,5.5-8.5c-1.3,0.4-2.6,0.7-4,0.7C328.3,155,327.1,154.9,326,154.6z"/>
	<path class="st19" d="M343.4,113.1l-12.4,7.6l-1.3,5.9c4.5,0.1,8.7,2.4,11.3,6.2c0.8-4.1,1.4-8.2,1.8-12.3
		C343.1,118.2,343.3,115.7,343.4,113.1z"/>
	<path class="st2" d="M329.9,126.7L329.9,126.7c-2.5,0-5,0.7-7.2,2c-6.5,4.1-8.7,12.7-4.8,19.4c0.5,0.7,0.9,1.4,1.4,2.1l4.5-4.5
		l2.3,9c1.2,0.3,2.5,0.6,3.7,0.6c7.5,0,13.8-6.3,13.8-14.3C343.4,133.1,337.4,126.8,329.9,126.7z"/>
	<polygon class="st4" points="326,154.6 323.7,145.6 319.3,150.1 296,173.5 309.6,177.4 333.4,184.2 328.2,163 	"/>
	<path class="st10" d="M303.2,384.1c0,0-12.1-16.3-31.9-17.3s-35.2,9-52.8,25.5s-17.6,16.5-17.6,16.5h21.7c0,0,26.7-37,47.1-36.7
		C289.9,372.5,303.2,384.1,303.2,384.1z"/>
</g>
</svg>
