<?xml version="1.0" encoding="utf-8"?>
<!-- Generator: Adobe Illustrator 21.0.2, SVG Export Plug-In . SVG Version: 6.00 Build 0)  -->
<svg version="1.1" id="Layer_1" xmlns="http://www.w3.org/2000/svg" xmlns:xlink="http://www.w3.org/1999/xlink" x="0px" y="0px"
	 width="600.7px" height="361.1px" viewBox="0 0 600.7 361.1" style="enable-background:new 0 0 600.7 361.1;" xml:space="preserve"
	>
<style type="text/css">
	.st0{fill:none;}
	.st1{fill:#FFE5C9;}
	.st2{fill:#CCCCCC;}
	.st3{fill:#FFBF0A;}
	.st4{fill:#F2F2F2;}
	.st5{fill:#B2B2B2;}
	.st6{fill:#46178F;}
	.st7{fill:#FFFFFF;}
	.st8{fill:#291E1C;}
	.st9{fill:#E72546;}
	.st10{fill:#E89972;}
	.st11{fill:#1368CE;}
	.st12{fill:#0542B9;}
	.st13{fill:#A2D1F2;}
</style>
<path class="st0" d="M97.7,287.1l2.1,1.4c0.6-0.6,1.3-1.2,2-1.7C100.4,286.8,99,286.9,97.7,287.1z"/>
<path class="st0" d="M84.8,278.8l0.8,0.5c0.2-0.2,0.4-0.4,0.6-0.6L84.8,278.8z"/>
<path class="st1" d="M47.2,316l-1.3-0.5L47.2,316z"/>
<path class="st1" d="M93.5,312.9c2.1-10.8,12.1-15.8,16.9-17.7l-9.6-6.1C91.9,297,92.5,307.8,93.5,312.9z"/>
<path class="st1" d="M75.3,299.4c-0.3,2.2-0.1,4.4,0.6,6.5c2.1-10.1,10.2-17.9,20.4-19.6l-9.8-6.2C81.5,284.7,76.1,291.7,75.3,299.4
	z"/>
<path class="st2" d="M70.4,274.9c4.4,0.6,8.1,1.3,10.6,1.7c2,0.4,3.2,0.6,3.2,0.6L96,265.7c-0.9-1-2-2-3.1-2.8
	C81.7,254.5,59,253,46.6,253c-5.3,0-8.7,0.2-8.7,0.2L27,277c3.1-1.5,6.4-2.5,9.8-3C47.3,272.3,60.6,273.4,70.4,274.9z"/>
<path class="st0" d="M269.1,338.2l5.6-19.3l-7.2-11.6c-0.1,1.7,0.1,3.5,0.5,5.2l-10.9-8.9l-1.8,34.6L269.1,338.2L269.1,338.2z"/>
<path class="st0" d="M174.3,133.3L174.3,133.3v-0.2V133.3z"/>
<path class="st0" d="M334.3,360.5l-0.6-0.2h-1.8l1,2.9C333.6,362.4,334,361.5,334.3,360.5z"/>
<path class="st0" d="M87.6,277.6H89l-1,0.9c-0.5,0.4-1,0.9-1.5,1.4l9.8,6.2c2.4-0.5,4.9-0.7,7.4-0.5l1.6,0.2l-1.4,0.9
	c-1.1,0.7-2.1,1.5-3.1,2.4l9.7,6.2c0.9-0.3,1.8-0.6,2.7-0.9l2.3-0.6l-1.8,1.6c-0.4,0.4-0.8,0.8-1.2,1.1l10.5,6.7l0.5-0.2l-0.2,0.4
	l0.3,0.2l-8.1-72.9l-14.6,18.6l1.4,4.5l-14.2-0.2l9.6,4.9l-4.7,4.3c1.1,0.8,2.2,1.7,3.1,2.8l-11.9,11.5c0,0-1.2-0.3-3.2-0.6l2.3,1.5
	C84.8,277.7,86.2,277.6,87.6,277.6z"/>
<path class="st3" d="M334.3,360.5c-0.2,1-0.7,1.9-1.4,2.7l0.3,0.8c1-1,1.7-2.3,2-3.7h-1.5L334.3,360.5z"/>
<path class="st4" d="M263.2,189.6l-0.2,3.1l9.2-0.7c0.4-1.4,0.7-2.9,0.9-4.3c-0.4,0.2-0.7,0.3-1.1,0.4
	C268.9,188.7,266,189.2,263.2,189.6z"/>
<path class="st1" d="M291.3,261.9l2.3-7.9c-1.2-1.5-2.5-2.9-4-4.1c-1.4,2.5-5.1,8.9-9,17L291.3,261.9z"/>
<polygon class="st1" points="331.9,360.3 300.6,360.3 304.1,365.9 333.8,365.9 333.1,364 332.9,363.2 "/>
<path class="st1" d="M291.3,261.9l-10.6,4.9c-6.1,12.6-12.9,29-13.1,40.4l7.2,11.6L291.3,261.9z"/>
<path class="st4" d="M259.1,267.2c6.1-13.4,14-27.9,21.9-34.5l-0.4-6.1l-9.9,4.3l9.2-10.9l-4.4-1.7l-3.4-26.2l0,0l-9.2,0.7
	L259.1,267.2z"/>
<path class="st2" d="M259.1,267.2l-2,36.3l10.9,8.9c-0.4-1.7-0.5-3.5-0.5-5.2c0.2-11.3,7-27.7,13.1-40.4c4-8.1,7.6-14.5,9-17
	c0.4-0.7,0.6-1.1,0.6-1.1l-5.6-18.5c-1.3,0.7-2.4,1.5-3.5,2.4C273.1,239.2,265.2,253.7,259.1,267.2z"/>
<path class="st4" d="M214.6,193.4l-1.2-4.3l-2.2,1.4c1.3,14.8,7.7,26.9,13.8,38.7l17.6-40.2c-4.9-1.8-9.5-4.3-13.7-7.3L214.6,193.4z
	"/>
<polygon class="st4" points="192.6,360.3 186.7,365.9 252.6,365.9 252.7,364.3 232.5,360.3 "/>
<polygon class="st4" points="128,343.8 130.4,365.9 130.8,365.9 128.3,343.9 "/>
<path class="st4" d="M130.6,170.9c-0.8-3.6-1.9-7.1-3.1-10.6l17.8-4.5l58.2,122.5l13-29.5c-0.5-8.2-2-16.3-4.5-24.1
	c0,0-8.4-17-9.8-34.5l-4-1.6l-2.1,4.8l-37.2-41l-47.7,12h1C118.9,164.4,125.4,166.7,130.6,170.9z"/>
<path class="st4" d="M123.8,303.8l-7-61.3c5.2-7.7,9.2-16.1,11.9-25c-1.5,1-3.1,1.9-4.7,2.6l0,0l-8.4,10.7l8,72.9L123.8,303.8z"/>
<path class="st4" d="M123.9,220c1.6-0.7,3.2-1.5,4.7-2.5c4.7-15.1,5.4-31.1,2-46.5c-5.2-4.2-11.7-6.6-18.4-6.5h-1
	c-10.6,0.4-20.1,6.5-24.9,16L123.9,220z"/>
<path class="st1" d="M174.3,133.3c4.7,22.3,32.6,34.8,32.6,34.8l3.1-2.3c-6.7-6.7-12.9-13.9-18.4-21.6l-4.6-6.5l0,0l0,0l-0.6-0.9
	v-1.4l-6.5-20.6c-1.2,4-2.7,8.8-4.1,13.7l-1.3,4.6L174.3,133.3z"/>
<polygon class="st1" points="207,168.1 206.6,169 207.4,169.6 "/>
<path class="st5" d="M259.1,267.2l4-74.5l0.2-3.1c-3,0.5-5.9,0.9-8.8,1.1c-4,0.3-8.1-0.3-11.9-1.8L225,229.1l0.2,0.3
	c13,24.6,25.1,59.6,9,78.6l-19,8.1l13.2,9.5l-5.7,7.1l3.7,2.1l-2.2,3.2h31.1l1.8-34.6L259.1,267.2z"/>
<path class="st5" d="M173.6,360.3c-8.9,0-16.8-6-19.3-14.6l-9.4,3.9l-16.6-5.7l2.5,22h55.9l5.9-5.5L173.6,360.3L173.6,360.3z"/>
<path class="st5" d="M193.2,300.4l19.2,13.8l-5.1-22.1c8.4-12.4,10.1-29,9.1-43.3l-12.9,29.5l-58.1-122.5l-17.8,4.5
	c6.6,18.4,7,38.5,1.1,57.2c-2.7,8.9-6.7,17.3-11.9,25l7,61.4l6.7,4.3c1.1-0.7,2.3-1.3,3.6-1.6l0.2,1.1c-1,0.3-1.9,0.7-2.8,1.2
	l8.9,5.7l20.4-4.7L193.2,300.4z"/>
<polygon class="st5" points="232.5,360.3 252.7,364.3 253.9,364.5 254.2,360.3 "/>
<path class="st6" d="M210.9,187.5c0,1,0.1,2,0.2,3l2.2-1.4l-5.9-19.5l-0.8-0.7l-8.5,19.6l4,1.6c0-0.8-0.1-1.6-0.2-2.4L210.9,187.5z"
	/>
<path class="st7" d="M213.4,189.1l1.3,4.3l14.4-11.7c-6.8-4.7-13.1-10-18.8-15.8l-3.1,2.3l0.5,1.5L213.4,189.1z"/>
<path class="st7" d="M198.1,188.6l8.5-19.6l0.4-0.9c0,0-28-12.6-32.6-34.8l0,0v-0.2l1.4-4.6v-0.1l-16.9,24l0,0l37.1,41L198.1,188.6z
	"/>
<path class="st6" d="M207.2,292.1l5.1,22.1l2.8,2l19-8.1c16.1-19,4-54.1-9-78.6l-0.2-0.3c-6.2-11.8-12.5-23.9-13.8-38.7
	c0-1-0.2-2-0.2-3l-9,0.4c0,0.8,0.1,1.6,0.2,2.4c1.4,17.5,9.8,34.5,9.8,34.5c2.5,7.8,4,15.9,4.5,24.1
	C217.3,263,215.6,279.6,207.2,292.1z"/>
<path class="st1" d="M187.1,137.7l0.1,0.1L187.1,137.7z"/>
<path class="st1" d="M184.8,111.2c-1.8,0.8-3.7,1.3-5.6,1.4l0.7,2.2l6.5,20.6L184.8,111.2z"/>
<path class="st8" d="M242,83.7c-2.9,0.3-5.1,2.8-4.9,5.7c-0.1,2.8,2.1,5.2,5,5.2c0.1,0,0.1,0,0.2,0c2.9-0.3,5.1-2.8,4.9-5.7
	c0-2.8-2.2-5.1-5-5.2C242.1,83.7,242.1,83.7,242,83.7z"/>
<path class="st8" d="M264.8,93.7c2.9-0.2,5.1-2.7,5-5.6c0.1-2.8-2.1-5.2-4.9-5.2c-0.1,0-0.1,0-0.2,0c-2.9,0.3-5.1,2.7-5,5.7
	c-0.1,2.8,2.2,5.2,5,5.2C264.7,93.7,264.8,93.7,264.8,93.7z"/>
<path class="st3" d="M248.6,67.7l1.2-10c-11.5-1.5-23,2.5-30.9,10.9l6.3,7.2C231.2,69.4,240,66.4,248.6,67.7z"/>
<path class="st3" d="M255.1,67.2c3-1,6.1-1.4,9.2-1.2c5.4,0.4,10.5,2.3,14.7,5.6l5.4-8.3c-9-7-20.8-9.2-31.7-5.7L255.1,67.2z"/>
<path d="M223.1,121.7l0.8,0.1L223.1,121.7z"/>
<path d="M220.4,128.3c-0.1-0.3-0.2-0.7-0.4-1C220.2,127.6,220.3,128,220.4,128.3z"/>
<path d="M244.8,123.3L244.8,123.3z"/>
<path d="M252,147.5l-1.5,0.1L252,147.5z"/>
<path d="M248.4,147.8L248.4,147.8z"/>
<path d="M257.1,146.6c-0.5,0.1-1,0.3-1.6,0.3C256.1,146.9,256.6,146.7,257.1,146.6z"/>
<path d="M228.8,122.5h0.7H228.8z"/>
<path d="M219.3,125.1c-0.1-0.3-0.2-0.7-0.3-1C219.1,124.5,219.2,124.7,219.3,125.1z"/>
<path d="M239.8,123.3L239.8,123.3z"/>
<path d="M244.9,147.7h-1.3H244.9z"/>
<path d="M231.8,143.7l-0.6-0.4L231.8,143.7z"/>
<path d="M229.6,142c-0.3-0.2-0.5-0.4-0.8-0.7C229.2,141.6,229.4,141.8,229.6,142z"/>
<path d="M223.5,134.7c-0.2-0.3-0.3-0.6-0.5-0.9C223.1,134.1,223.3,134.4,223.5,134.7z"/>
<path d="M225.1,137.2c-0.1-0.1-0.2-0.3-0.3-0.4C224.7,136.6,225,137,225.1,137.2z"/>
<path d="M227.5,140c-0.2-0.2-0.4-0.4-0.6-0.7C227.1,139.6,227.2,139.8,227.5,140z"/>
<path d="M231,130.3l-2-3.3l-2,3.4l-5.6,0.2c0.4,0.8,0.7,1.5,1.1,2.3c18.5-2,31.2,2,36.3,13.3c0.5-0.1,1-0.2,1.6-0.4
	c0.6-1.1,1.1-2.2,1.7-3.3c1-2.2,1.8-4.4,2.5-6.7c1.6-5.5,2.2-11.3,1.7-17.1c-2.3,1-4.6,1.8-7,2.4l0.1,7.9L231,130.3z"/>
<path d="M240.7,147.2c-0.4,0-0.7-0.2-1-0.2C240,147.1,240.4,147.2,240.7,147.2z"/>
<path d="M237.8,146.5l-1.1-0.4L237.8,146.5z"/>
<path d="M235.1,145.4l-0.9-0.4L235.1,145.4z"/>
<path class="st9" d="M222.5,133c0.1,0.3,0.3,0.6,0.5,0.9s0.3,0.6,0.5,0.9c0.4,0.7,0.9,1.4,1.3,2.1c0,0.1,0.2,0.3,0.3,0.4
	c0.5,0.8,1.1,1.5,1.8,2.2c0.2,0.2,0.4,0.5,0.6,0.7s0.9,0.9,1.4,1.3c0.5,0.4,0.5,0.5,0.8,0.7s1.1,0.8,1.6,1.2l0.6,0.4
	c0.7,0.5,1.5,0.9,2.3,1.3l0.9,0.4c0.6,0.2,1.1,0.5,1.7,0.7l1.1,0.4l1.8,0.5c0.4,0,0.7,0.2,1,0.2c0.9,0.2,2,0.3,2.9,0.4h1.3
	c0.7,0,1.3,0,2,0h1.5c0.7,0,1.4,0,2.1-0.1l1.5-0.1c1.1-0.1,2.3-0.3,3.5-0.6c0.5,0,1-0.2,1.6-0.3l1.8-0.2
	C253.7,134.9,241.1,131.1,222.5,133z"/>
<path class="st7" d="M219.3,125.1c0.2,0.8,0.5,1.5,0.8,2.3c0.1,0.3,0.2,0.7,0.4,1c0.3,0.8,0.7,1.6,1,2.4l5.6-0.2l2-3.4l2,3.3
	l28.5-1.2l-0.1-7.9c-4.7,1.2-9.6,2-14.4,2.1H245c-1.6,0-3.3,0-5,0h-0.2c-3.3,0-6.6-0.3-10.1-0.8H229c-1.6-0.2-3.2-0.4-4.9-0.7
	l-0.8-0.1c-1.7-0.3-3.3-0.6-5-0.9c0.3,1.1,0.6,2.2,0.9,3.3C219.1,124.5,219.2,124.7,219.3,125.1z"/>
<path class="st1" d="M264.5,65.9c-3.1-0.2-6.2,0.3-9.2,1.2l-2.5-9.6c2.1-0.7,4.2-1.1,6.3-1.4c-7.1-10.6-17.9-18.3-30.2-21.5
	c-15.4-2.7-40.2-1.1-49,6.8c-10.2,9.1-12.6,22.8-10.9,35.9c2.7-1.9,5.9-3,9.2-3.2c4.1-0.1,7.9,1.3,11,3.8c-3.1-2.4-6.9-3.8-11.1-3.6
	c-3.3,0.1-6.5,1.3-9.2,3.2c-5.4,3.9-8.5,10.2-8.4,16.8c0.2,10.7,8.3,19,18.2,18.5c0.2,0,0.4,0,0.6,0c1.9-0.3,3.8-0.8,5.5-1.6
	L183,83.8l8.7,5.5l3.9,8.5c0,0,0,0.1,0,0.1l11.6,25.8l6.1-12.8c12.2,2.8,24.8,3.9,37.3,3.1c-2.8-1.3-5.4-2.9-7.9-4.7l25.4-3.7
	c-0.2,1.7-0.7,3.4-1.4,5l1.2-0.4l4.2,10.2C273,98.4,270.7,80.1,264.5,65.9z M242.2,94.5v0.3c-2.8,0-5.1-2.2-5.1-5.1
	c0-0.1,0-0.1,0-0.2c-0.1-2.9,2.1-5.4,5-5.7c2.8,0,5.1,2.2,5.1,5C247.4,91.7,245.2,94.3,242.2,94.5z M249.8,57.9L249.8,57.9l-1.2,10
	c-8.6-1.3-17.3,1.6-23.4,7.9l-6.4-7.2c8-8.4,19.5-12.5,31-10.9V57.9z M269.7,88.1c0,2.8-2.1,5.2-4.9,5.5c-2.8,0-5.1-2.2-5.1-5.1
	c0-0.1,0-0.1,0-0.2c-0.1-2.9,2-5.4,4.9-5.7v0.3c2.8,0,5.1,2.2,5.1,5C269.7,88,269.7,88,269.7,88.1z"/>
<path class="st3" d="M266.5,110.6c-2,3.8-6.2,7.7-16,3.2c-12.5,0.8-25.1-0.2-37.3-3.1l-6.1,12.8l-11.6-25.8l-4-8.6l-8.7-5.5
	l1.8,27.5l1.6,24.2v1.4l0.6,0.9l0,0l4.6,6.5c5.5,7.7,11.6,14.9,18.4,21.5c5.8,5.8,12.1,11.1,18.8,15.8c4.3,3,8.9,5.4,13.7,7.3
	c3.8,1.5,7.8,2.1,11.9,1.8c2.8-0.3,5.8-0.7,8.8-1.1c3-0.5,5.7-0.9,8.7-1.5c0.4-0.1,0.8-0.2,1.1-0.4c2.4-1.1,4.1-3.3,4.6-5.9
	c2-8.4-4.6-59.7-5.1-59.9l-0.4-1.3l-4.2-10.2L266.5,110.6z M223,121.6l0.8,0.1c1.6,0.3,3.3,0.5,4.9,0.7h0.7
	c3.4,0.4,6.8,0.7,10.1,0.8h0.2c1.7,0,3.3,0,5,0h0.1c4.9-0.2,9.7-0.9,14.4-2.1c2.4-0.6,4.7-1.4,7-2.4c0.5,5.7-0.1,11.5-1.7,17.1
	c-0.7,2.3-1.5,4.5-2.5,6.7c-0.5,1.1-1.1,2.2-1.7,3.3c-0.6,0.2-1.1,0.3-1.6,0.4l-1.7,0.4c-0.5,0.1-1,0.3-1.6,0.3
	c-1.2,0.2-2.4,0.4-3.5,0.6l-1.5,0.1c-0.7,0-1.4,0.1-2.1,0.1h-1.5c-0.7,0-1.3,0-2,0h-1.3c-1-0.1-2-0.2-2.9-0.4c-0.4,0-0.7-0.2-1-0.2
	l-1.8-0.5l-1.1-0.4c-0.6-0.2-1.1-0.4-1.7-0.7l-0.9-0.4c-0.8-0.4-1.6-0.8-2.3-1.3l-0.6-0.4c-0.6-0.4-1.1-0.8-1.6-1.2
	s-0.5-0.4-0.8-0.7c-0.2-0.2-0.9-0.9-1.4-1.3c-0.4-0.5-0.4-0.4-0.6-0.7c-0.6-0.7-1.2-1.4-1.8-2.2c-0.1-0.1-0.2-0.3-0.3-0.4
	c-0.5-0.7-0.9-1.3-1.3-2.1c-0.2-0.3-0.3-0.6-0.5-0.9c-0.2-0.3-0.3-0.6-0.5-0.9c-0.4-0.7-0.8-1.5-1.1-2.3c-0.4-0.8-0.7-1.6-1-2.4
	c-0.1-0.3-0.2-0.7-0.4-1c-0.3-0.7-0.5-1.5-0.8-2.3c0-0.3-0.2-0.7-0.3-1c-0.3-1.1-0.6-2.2-0.9-3.3C219.7,121.1,221.4,121.4,223,121.6
	L223,121.6z"/>
<path class="st10" d="M266.5,110.6c0.8-1.6,1.3-3.3,1.4-5l-25.4,3.6c2.5,1.8,5.1,3.4,7.9,4.7C260.3,118.4,264.7,114.6,266.5,110.6z"
	/>
<path class="st1" d="M109.3,318.1c0.9-9.9,12.7-14.5,12.8-14.6l0.8-0.3l-10.4-6.6C106.8,302.3,105.5,311,109.3,318.1z"/>
<path class="st1" d="M123.2,303.4l-0.4,0.9c-4.8,11.1-1.8,15.8-0.2,17.5c1.4-8,5-11.9,7.9-13.7l-6.7-4.3l-0.2-0.1L123.2,303.4z"/>
<polygon class="st1" points="163.9,338.1 169.2,338.1 166.7,336.4 "/>
<path class="st4" d="M93,262.8l4.7-4.3l-9.6-4.9l14.2,0.2l-1.4-4.5l14.6-18.6l8.4-10.7l0,0l-37.7-39.6l0,0l-39.5,72.7
	C59.1,253.1,81.7,254.5,93,262.8z"/>
<path class="st3" d="M134.1,306.5c-1.3,0.3-2.5,0.9-3.6,1.6c-2.8,1.8-6.5,5.7-7.9,13.7c-1.5-1.6-4.6-6.4,0.2-17.5l0.4-0.9l0.2-0.4
	l-0.5,0.2l-0.8,0.3c-0.1,0-11.9,4.7-12.8,14.6c-3.8-7.1-2.5-15.9,3.2-21.6c0.4-0.4,0.8-0.8,1.2-1.1l1.8-1.6l-2.3,0.6
	c-0.9,0.2-1.8,0.5-2.7,0.9c-4.8,1.9-14.8,6.9-16.9,17.7c-1-5.1-1.6-15.8,7.3-23.7c0.9-0.9,2-1.8,3-2.6l1.4-0.9l-1.6-0.2
	c-2.5-0.1-5,0-7.4,0.5c-10.2,1.7-18.3,9.5-20.4,19.6c-0.6-2.1-0.8-4.3-0.6-6.5c0.8-7.7,6.3-14.6,11.2-19.3c0.5-0.5,1-1,1.5-1.4
	l1-0.9h-1.3c-1.5,0-2.9,0.1-4.4,0.4c-7.4,1.2-13.8,5.6-17.6,12.1l1,0.6c3.8-6.6,10.5-11,18.1-11.9l1.4-0.1c-0.2,0.2-0.4,0.4-0.6,0.6
	c-16.9,16.4-10.3,28.2-9.9,28.7l0.8,1.3l0.3-1.5c2-9.6,7.1-16.1,15.2-19.2c1.9-0.7,3.9-1.2,5.9-1.5c1.4-0.2,2.8-0.3,4.2-0.4
	c-0.7,0.5-1.3,1.1-2,1.7c-12.4,11.2-6.7,27.6-6.7,27.7l1,2.7l0.2-2.9c0.6-12.4,11.9-17.9,16.7-19.8c-10.4,11.2-1.7,24.3-1.6,24.4
	l1.2,1.8l-0.4-2c-0.7-8.5,7.5-13.5,10.8-15.1c-5.5,13.8,1.2,18,1.5,18.2l0.8,0.4l0.1-0.9c1-7.1,3.9-10.9,6.1-12.8
	c0.6-0.5,1.3-1,2-1.4c0.9-0.5,1.8-0.9,2.8-1.2L134.1,306.5z"/>
<path class="st1" d="M228.5,325.8l-13.2-9.5l-2.8-2l-19.2-13.8l-32.3,9.3l-20.4,4.7h-0.3l4.5,34.8l-0.1,0l-4.5-34.9h0.2l-8.9-5.7
	c-0.7,0.4-1.4,0.9-2,1.4c-2.2,2-5.1,5.7-6.1,12.8l-0.1,0.9l-0.8-0.4c-0.3-0.2-7-4.3-1.5-18.2c-3.3,1.6-11.5,6.6-10.8,15.1l0.2,2.2
	l-1.2-1.8c0-0.1-8.8-13.3,1.6-24.4c-4.9,1.9-16.1,7.4-16.7,19.8l-0.2,2.9l-1-2.7c0-0.2-5.7-16.6,6.7-27.7l-2.1-1.4
	c-2,0.3-4,0.8-5.9,1.5c-8.1,3.1-13.3,9.6-15.2,19.2l-0.3,1.5l-0.8-1.3c-0.3-0.5-6.9-12.2,9.9-28.7l-0.4-0.6
	c-7.6,0.9-14.2,5.3-18.1,11.9l-1-0.6c3.8-6.4,10.2-10.8,17.6-12.1l-2.3-1.5c-2.5-0.5-6.2-1.1-10.6-1.7l-0.1,0.1
	c-9.8-1.5-23.1-2.6-33.5-0.8c-9.8,9.8-9.9,25.6-0.2,35.5c2.4,2.5,5.4,4.4,8.6,5.7l0.1-0.1l0.6,0.2l1.3,0.5l80.7,27.8l0.3,0.1
	l16.7,5.8l9.4-3.9c-0.2-0.5-0.3-1-0.4-1.6l0.3-0.1c-0.2-1.2-0.3-2.4-0.3-3.7c0-0.7,0-1.5,0.1-2.2h10.1l2.8-1.6l2.5,1.6h55l2.2-3.1
	l-3.8-2.1L228.5,325.8z"/>
<polygon class="st1" points="375.7,365.9 375.3,364.8 375.3,364.8 375.5,365.9 "/>
<polygon class="st1" points="355.3,365.9 370.1,365.9 375.3,364.8 368.5,360.3 367,360.3 "/>
<polygon class="st1" points="375.5,365.9 375.3,364.8 375.3,364.8 375.3,364.8 370.1,365.9 "/>
<path class="st11" d="M255.3,338.2H153.7c-0.1,0.7-0.1,1.5-0.1,2.2c0,1.2,0.1,2.5,0.3,3.7c0.1,0.6,0.3,1.2,0.4,1.8
	c2.5,8.6,10.3,14.5,19.3,14.6h105v-22.2h-23.3V338.2z"/>
<polygon class="st12" points="278.7,338.1 278.7,338.1 278.7,360.3 290.4,360.3 300.6,360.3 331.9,360.3 333.6,360.3 335.1,360.3 
	367,360.3 368.5,360.3 422.1,360.3 422.1,338.1 422,338.1 "/>
<path class="st12" d="M320.2,194.4l-41.5,143.8H422l41.5-143.7L320.2,194.4z M375,297.5l-8.8,0.4v-21.8l-7.7,6.1l-4.7,16.3H344
	l13.7-45.5l10.3-3l-5.6,19.1l20.9-16.4l7.6,2.6L375,269.1V297.5z M390.1,302.7l-4.3-3.4l4.1-5.9l5.8-0.3l0.5,6.3L390.1,302.7z
	 M394.6,289.9l1.8-44.8l16.5,2L394.6,289.9z"/>
<polygon class="st11" points="274.8,318.7 269.1,338.1 278.3,338.1 278.6,338.1 320.2,194.4 319.9,194.4 310.9,194.4 293.6,253.9 
	291.3,261.9 "/>
<polygon class="st13" points="394.6,289.9 412.9,247.2 396.4,245.1 "/>
<polygon class="st13" points="389.8,293.4 385.7,299.3 390,302.7 396.1,299.4 395.6,293.1 "/>
<polygon class="st13" points="383.2,252.8 362.4,269.2 368,250.1 357.7,253.1 344,298.7 353.7,298.5 358.4,282.3 366.1,276.1 
	366.1,297.9 374.9,297.5 375.1,269.1 390.8,255.4 "/>
</svg>
